# Blender 4.5.1 LTS
# www.blender.org
mtllib 203songbbgame办公室-07-分支1碰撞.mtl
o 碰撞
v 3.686791 0.359955 -12.356945
v 10.724806 0.359955 -12.356945
v 10.724806 0.359955 -14.933744
v -14.999731 0.359955 -14.933744
v 3.686791 0.359955 -2.369720
v -5.800520 0.359955 -2.369720
v -14.999731 0.359955 -0.888868
v -5.800520 0.359955 -1.838324
v -14.826315 0.359955 -0.888868
v -14.826315 0.359955 4.285936
v -0.545082 0.359955 -0.901426
v -3.024933 0.359955 4.285936
v -0.545082 0.359955 -1.850883
v 3.686791 5.359954 -12.356945
v 10.724806 5.359954 -12.356945
v 10.724806 5.359954 -14.933744
v -14.999731 5.359954 -14.933744
v 3.686791 5.359954 -2.369720
v -5.800520 5.359954 -2.369720
v -14.999731 5.359954 -0.888868
v -5.800520 5.359954 -1.838324
v -14.826315 5.359954 -0.888868
v -14.826315 5.359954 4.285936
v -0.545082 5.359954 -0.901426
v -3.024933 5.359954 4.285936
v -0.545082 5.359954 -1.850883
v 3.825701 0.410218 -12.375023
v 6.441874 0.410218 -12.375023
v 3.825701 0.410218 -12.642524
v 6.441874 0.410218 -12.642524
v 3.299547 0.410218 -12.452066
v 3.299547 0.410218 -9.346779
v 3.617058 0.410218 -12.452066
v 3.617058 0.410218 -9.346779
v 2.908776 0.410218 -7.000906
v 2.908776 0.410218 -6.554834
v 3.290656 0.410218 -7.000906
v 3.290656 0.410218 -6.554834
v 3.287971 0.410218 -4.826541
v 3.287971 0.410218 -4.283484
v 3.752881 0.410218 -4.826541
v 3.752881 0.410218 -4.283484
v -4.488232 0.410218 -2.525624
v -4.488232 0.410218 -2.108545
v 2.080043 0.410218 -2.525624
v 2.080043 0.410218 -2.108545
v -6.282667 0.410218 -2.273253
v -6.282667 0.410218 -1.848529
v -5.770460 0.410218 -2.273253
v -5.770460 0.410218 -1.848529
v -14.805262 0.410218 -0.009909
v -14.805262 0.410218 1.600671
v -14.101973 0.410218 -0.009909
v -14.101973 0.410218 1.600671
v -14.541534 0.410218 2.971291
v -14.541534 0.410218 3.743345
v -13.838243 0.410218 2.971291
v -13.838243 0.410218 3.743345
v -12.814140 0.410218 -8.490561
v -12.814140 0.410218 -7.716836
v -12.032305 0.410218 -8.490561
v -12.032305 0.410218 -7.716836
v -10.041162 0.410218 -13.802888
v -10.041162 0.410218 -11.710641
v -9.116007 0.410218 -13.802888
v -9.116007 0.410218 -11.710641
v -12.718641 0.410218 -11.698632
v -12.718641 0.410218 -10.852646
v -11.932449 0.410218 -11.698632
v -11.932449 0.410218 -10.852646
v 2.848311 0.410218 -8.885807
v 2.502367 0.410218 -8.034266
v 3.639666 0.410218 -8.564315
v 3.293722 0.410218 -7.712772
v 1.792507 0.410218 -10.206321
v 1.604050 0.410218 -5.980162
v 2.659832 0.410218 -10.290998
v 2.314392 0.410218 -5.855525
v 1.680133 0.410218 -6.813712
v 2.735835 0.410218 -6.542561
v 1.796244 0.410218 -9.564607
v 2.778689 0.410218 -9.691146
v 2.460527 0.410218 -8.753651
v 1.530411 0.410218 -8.606182
v -12.423222 0.410218 -8.649829
v -12.975077 0.410218 -8.103699
v -12.423222 0.410218 -7.557569
v -11.871368 0.410218 -8.103699
v -12.423222 0.410218 -8.103699
v 3.825701 1.762022 -12.375023
v 6.441874 1.762022 -12.375023
v 3.825701 1.762022 -12.642524
v 6.441874 1.762022 -12.642524
v 3.299547 1.829615 -12.452066
v 3.299547 1.829615 -9.346779
v 3.617058 1.829615 -12.452066
v 3.617058 1.829615 -9.346779
v 2.848311 1.555922 -8.885807
v 2.502367 1.555922 -8.034266
v 3.639666 1.555922 -8.564315
v 3.293722 1.555922 -7.712772
v 1.792507 0.961600 -10.206321
v 1.604050 0.961600 -5.980162
v 2.659832 0.961600 -10.290998
v 2.314392 0.961600 -5.855525
v 1.680133 0.961600 -6.813712
v 2.735835 0.961600 -6.542561
v 1.796244 0.961600 -9.564607
v 2.778689 0.961600 -9.691146
v 2.460527 0.961600 -8.753651
v 1.530411 0.961600 -8.606182
v 2.908776 2.354169 -7.000906
v 2.908776 2.354169 -6.554834
v 3.290656 2.354169 -7.000906
v 3.290656 2.354169 -6.554834
v 3.287971 2.014403 -4.826541
v 3.287971 2.014403 -4.283484
v 3.752881 2.014403 -4.826541
v 3.752881 2.014403 -4.283484
v -4.488232 2.654192 -2.525624
v -4.488232 2.654192 -2.108545
v 2.080043 2.654192 -2.525624
v 2.080043 2.654192 -2.108545
v -6.282667 1.392783 -2.273253
v -6.282667 1.392783 -1.848529
v -5.770460 1.392783 -2.273253
v -5.770460 1.392783 -1.848529
v -14.541534 1.299173 2.971291
v -14.541534 1.299173 3.743345
v -13.838243 1.299173 2.971291
v -13.838243 1.299173 3.743345
v -14.805262 0.895108 -0.009909
v -14.805262 0.895108 1.600671
v -14.101973 0.895108 -0.009909
v -14.101973 0.895108 1.600671
v -14.524635 0.410218 -0.009909
v -14.524635 0.410218 1.600671
v -14.524635 0.895108 -0.009909
v -14.524635 0.895108 1.600671
v -14.805262 0.410218 1.236929
v -14.101973 0.410218 1.236929
v -14.805262 0.895108 1.236929
v -14.101973 0.895108 1.236929
v -14.524635 0.895108 1.236929
v -14.524635 0.410218 1.236929
v -14.805262 0.410218 0.328054
v -14.805262 0.895108 0.328054
v -14.524635 0.895108 0.328054
v -14.101973 0.410218 0.328054
v -14.101973 0.895108 0.328054
v -14.524635 0.410218 0.328054
v -14.524635 1.237467 -0.009909
v -14.101973 1.237467 -0.009909
v -14.805262 1.237467 0.328054
v -14.805262 1.237467 -0.009909
v -14.524635 1.237467 1.600671
v -14.805262 1.237467 1.600671
v -14.101973 1.237467 1.236929
v -14.101973 1.237467 1.600671
v -14.524635 1.237467 0.328054
v -14.805262 1.237467 1.236929
v -14.524635 1.237467 1.236929
v -14.101973 1.237467 0.328054
v -14.805262 1.371905 0.328054
v -14.805262 1.371905 -0.009909
v -14.524635 1.371905 1.600671
v -14.805262 1.371905 1.600671
v -14.524635 1.371905 -0.009909
v -14.524635 1.371905 0.328054
v -14.805262 1.371905 1.236929
v -14.524635 1.371905 1.236929
v -12.423222 1.282280 -8.649829
v -12.032305 1.282280 -8.490561
v -12.975077 1.282280 -8.103699
v -12.814140 1.282280 -8.490561
v -12.423222 1.282280 -7.557569
v -12.814140 1.282280 -7.716836
v -11.871368 1.282280 -8.103699
v -12.032305 1.282280 -7.716836
v -12.423222 1.282280 -8.103699
v -12.718641 1.814150 -11.698632
v -11.932449 1.814150 -11.698632
v -12.718641 1.814150 -10.852646
v -11.932449 1.814150 -10.852646
v -10.041162 1.545629 -13.802888
v -9.116007 1.545629 -13.802888
v -10.041162 0.896841 -11.710641
v -9.116007 0.896841 -11.710641
v -10.041162 0.410218 -11.881622
v -9.116007 0.410218 -11.881622
v -10.041162 0.896841 -11.881622
v -9.116007 0.896841 -11.881622
v -10.041162 0.410218 -12.527523
v -10.041162 0.896841 -12.527523
v -9.116007 0.410218 -12.527523
v -9.116007 0.896841 -12.527523
v -9.187704 1.166214 -11.723891
v -9.969463 1.166214 -11.723891
v -9.187704 1.166214 -11.868372
v -9.969463 1.166214 -11.868372
v -10.041162 1.830925 -13.802888
v -9.116007 1.830925 -13.802888
v -10.041162 1.014420 -12.527523
v -9.116007 1.014420 -12.527523
v -8.565521 1.545629 -13.802888
v -8.565521 0.896841 -12.527523
v -8.565521 1.830925 -13.802888
v -8.565521 1.014420 -12.527523
v -10.412601 0.896841 -12.527523
v -10.412601 1.545629 -13.802888
v -10.412601 1.014420 -12.527523
v -10.412601 1.830925 -13.802888
v -8.823446 0.405424 -7.441062
v -6.364714 0.405424 -6.018595
v -7.672245 0.405424 -10.594231
v -4.681833 0.405424 -8.488177
v -8.214773 0.405424 -12.384577
v -3.173603 0.405424 -11.070616
v -4.742586 0.405424 -16.128027
v -0.211394 0.405424 -13.924318
v -14.714890 0.405424 -5.409507
v -12.738407 0.405424 -3.843873
v -17.005569 0.405424 -1.649478
v -14.757822 0.405424 -0.400320
v -5.461124 0.405424 2.526834
v -5.840934 0.405424 5.249748
v -14.286757 0.405424 1.810620
v -14.631529 0.405424 4.559439
v -12.839699 0.405424 2.906078
v -12.903490 0.405424 4.695137
v 4.250014 0.405424 -4.340232
v 3.255250 0.405424 -1.777233
v 1.805229 0.405424 -5.058766
v 0.838618 0.405424 -2.462513
v 2.870657 0.405424 -4.643717
v 2.200395 0.405424 -2.195976
v 3.752632 0.405424 -3.058733
v 1.321923 0.405424 -3.760639
v 2.535526 0.829209 -3.419847
v -7.594080 0.405424 -6.729828
v -6.177038 0.767554 -9.541204
v -5.694188 0.682911 -11.727596
v -2.476991 0.405424 -15.026173
v -6.478680 0.405424 -14.256302
v -1.692499 0.405424 -12.497467
v -4.085588 0.937451 -13.376884
v -8.247845 0.405424 -9.017647
v -5.523274 0.405424 -7.253386
v -6.885559 0.937451 -8.135517
v -13.726648 0.405424 -4.626690
v -15.881695 0.405424 -1.024899
v -15.860228 0.405424 -3.529492
v -13.748114 0.405424 -2.122097
v -14.804171 1.093434 -2.825794
v -5.651029 0.405424 3.888292
v -14.459143 0.405424 3.185028
v -12.871595 0.857667 3.800608
v -6.223929 0.405424 2.566040
v -6.571068 0.405424 5.192413
v -6.397499 0.857667 3.879227
v -13.767509 0.405424 4.627287
v -13.563227 0.405424 2.358350
v -13.665367 0.857667 3.492819
vn -0.0000 1.0000 -0.0000
vn -1.0000 -0.0000 -0.0000
vn -0.9022 -0.0000 -0.4313
vn 1.0000 -0.0000 -0.0000
vn -0.0000 -0.0000 -1.0000
vn -0.0000 -0.0000 1.0000
vn 0.0024 -0.0000 1.0000
vn -0.0000 -1.0000 -0.0000
vn -0.3764 -0.0000 0.9265
vn 0.3764 -0.0000 -0.9265
vn 0.9265 -0.0000 0.3764
vn -0.9265 -0.0000 -0.3764
vn -0.9959 -0.0000 -0.0909
vn -0.9965 -0.0000 0.0832
vn -1.0000 -0.0000 0.0058
vn 0.9809 -0.0000 -0.1944
vn 0.9923 -0.0000 -0.1236
vn -0.1728 -0.0000 0.9850
vn 0.8524 -0.0000 0.5229
vn 0.9470 -0.0000 0.3214
vn -0.0972 -0.0000 -0.9953
vn -0.9636 -0.0000 -0.2673
vn -0.3773 -0.0000 0.9261
vn 0.3773 -0.0000 -0.9261
vn 0.3773 -0.0000 0.9261
vn -0.3773 -0.0000 -0.9261
vn 0.9233 -0.0000 0.3841
vn -0.9233 -0.0000 -0.3841
vn 0.9233 -0.0000 -0.3841
vn -0.9233 -0.0000 0.3841
vn 0.9664 0.2572 -0.0000
vn -0.0000 0.0491 -0.9988
vn -0.9664 0.2572 -0.0000
vn -0.0000 0.0491 0.9988
vn -0.0000 0.8422 0.5392
vn -0.0000 -0.8913 -0.4534
vn 0.2348 0.9720 0.0009
vn 0.1129 0.9935 -0.0135
vn 0.2427 0.9672 -0.0753
vn -0.5437 0.8393 -0.0047
vn -0.3453 0.8607 -0.3742
vn 0.0055 0.8925 -0.4510
vn -0.2116 0.9042 -0.3710
vn 0.3764 0.9025 -0.2094
vn -0.1617 0.9754 -0.1500
vn -0.1186 0.9923 0.0359
vn -0.1887 0.9796 -0.0689
vn -0.0880 0.9928 -0.0816
vn 0.0544 0.9775 0.2040
vn -0.2994 0.9478 -0.1093
vn 0.1001 0.9128 0.3959
vn 0.4117 0.8788 0.2414
vn -0.2411 0.8497 -0.4689
vn -0.0353 0.8924 0.4499
vn -0.0289 0.9294 0.3679
vn -0.0253 0.9462 0.3225
vn 0.5074 0.8332 -0.2199
vn 0.1705 0.8818 -0.4397
vn 0.2575 0.9502 0.1755
vn 0.1683 0.9808 0.0983
vn -0.0168 0.9447 -0.3276
vn 0.2057 0.9060 0.3700
vn -0.3744 0.9031 0.2102
vn 0.1034 0.9717 -0.2126
vn -0.1823 0.9801 -0.0782
vn -0.2232 0.9480 -0.2271
vn -0.2010 0.9786 -0.0450
vn 0.1568 0.9741 0.1627
vn -0.1606 0.9472 0.2776
vn 0.2411 0.8497 0.4689
vn 0.1949 0.9494 -0.2461
vn -0.0039 0.9457 0.3251
vn -0.4765 0.8771 -0.0598
vn 0.5162 0.8534 0.0720
vn -0.1380 0.9242 0.3560
vn 0.2559 0.9057 -0.3380
vt 1.612066 -1.238758
vt 6.354178 3.754164
vt -3.029788 5.063796
vt 10.018305 3.754164
vt 10.018305 5.063796
vt -3.029788 -1.966743
vt -2.932944 -1.966743
vt -2.932944 -4.563704
vt 1.612066 -1.475854
vt 2.981957 -4.563704
vt 3.920477 -1.966743
vt 3.920477 -1.475854
vt 6.354178 -1.238758
vt 0.000000 1.000000
vt 1.000000 0.000000
vt 0.000000 0.000000
vt 0.774155 1.000000
vt 1.000000 0.399020
vt 0.774155 0.399020
vt 0.500000 0.500000
vt 1.000000 1.000000
vt 1.000000 0.500000
vt 0.918278 1.000000
vt 0.918278 0.000000
vt 0.795721 0.000000
vt 0.408803 1.000000
vt 0.408803 0.000000
vt 0.165101 1.000000
vt 0.165101 0.000000
vt 0.000000 0.500000
vt 0.500000 0.000000
vt 0.795721 1.000000
vt 0.774155 0.000000
vt 0.209840 0.000000
vt 1.000000 0.399020
vt 0.000000 0.399020
vt 0.000000 0.399020
vt 0.209840 1.000000
vt 0.209840 1.000000
vt 0.209840 0.399020
vt 0.774155 0.399020
vt 0.209840 0.399020
vt 0.500000 1.000000
vt 0.918278 1.000000
vt 0.609567 1.000000
vt 0.918278 0.000000
vt 0.609567 0.000000
vt 0.609567 0.000000
s 0
usemtl 碰撞
f 6/1/1 1/2/1 4/3/1
f 1/2/1 2/4/1 3/5/1
f 4/3/1 7/6/1 9/7/1
f 9/7/1 10/8/1 8/9/1
f 10/8/1 12/10/1 8/9/1
f 12/10/1 11/11/1 8/9/1
f 11/11/1 13/12/1 8/9/1
f 4/3/1 9/7/1 6/1/1
f 1/2/1 3/5/1 4/3/1
f 6/1/1 5/13/1 1/2/1
f 9/7/1 8/9/1 6/1/1
f 5/13/2 14/2/2 1/2/2
f 12/10/3 24/11/3 11/11/3
f 8/9/2 19/1/2 6/1/2
f 4/3/4 20/6/4 7/6/4
f 7/6/5 22/7/5 9/7/5
f 1/2/5 15/4/5 2/4/5
f 9/7/4 23/8/4 10/8/4
f 2/4/2 16/5/2 3/5/2
f 10/8/5 25/10/5 12/10/5
f 3/5/6 17/3/6 4/3/6
f 13/12/7 21/9/7 8/9/7
f 6/1/5 18/13/5 5/13/5
f 11/11/2 26/12/2 13/12/2
f 29/14/8 28/15/8 27/16/8
f 33/14/8 32/15/8 31/16/8
f 37/14/8 36/15/8 35/16/8
f 41/14/8 40/15/8 39/16/8
f 45/14/8 44/15/8 43/16/8
f 49/14/8 48/15/8 47/16/8
f 141/17/8 137/18/8 145/19/8
f 57/14/8 56/15/8 55/16/8
f 89/20/8 62/21/8 87/22/8
f 190/23/8 64/15/8 189/24/8
f 69/14/8 68/15/8 67/16/8
f 73/14/8 72/15/8 71/16/8
f 79/25/8 78/21/8 76/15/8
f 83/26/8 79/25/8 84/27/8
f 75/16/8 82/28/8 81/29/8
f 81/29/8 83/26/8 84/27/8
f 61/14/8 89/20/8 85/30/8
f 59/16/8 89/20/8 86/31/8
f 89/20/8 60/15/8 86/31/8
f 91/15/1 92/14/1 90/16/1
f 30/21/4 91/15/4 28/15/4
f 27/16/2 92/14/2 29/14/2
f 29/14/5 93/21/5 30/21/5
f 28/15/6 90/16/6 27/16/6
f 95/15/1 96/14/1 94/16/1
f 31/16/5 96/14/5 33/14/5
f 33/14/4 97/21/4 34/21/4
f 32/15/2 94/16/2 31/16/2
f 34/21/6 95/15/6 32/15/6
f 99/15/1 100/14/1 98/16/1
f 74/21/9 99/15/9 72/15/9
f 71/16/10 100/14/10 73/14/10
f 73/14/11 101/21/11 74/21/11
f 72/15/12 98/16/12 71/16/12
f 106/25/1 105/21/1 107/32/1
f 106/25/1 110/26/1 111/27/1
f 102/16/1 109/28/1 104/14/1
f 108/29/1 110/26/1 109/28/1
f 76/15/13 106/25/13 79/25/13
f 79/25/14 111/27/14 84/27/14
f 81/29/15 102/16/15 75/16/15
f 77/14/16 109/28/16 82/28/16
f 83/26/17 107/32/17 80/32/17
f 78/21/18 103/15/18 76/15/18
f 80/32/19 105/21/19 78/21/19
f 82/28/20 110/26/20 83/26/20
f 75/16/21 104/14/21 77/14/21
f 84/27/22 108/29/22 81/29/22
f 113/15/1 114/14/1 112/16/1
f 37/14/4 115/21/4 38/21/4
f 36/15/2 112/16/2 35/16/2
f 38/21/6 113/15/6 36/15/6
f 35/16/5 114/14/5 37/14/5
f 117/15/1 118/14/1 116/16/1
f 41/14/4 119/21/4 42/21/4
f 40/15/2 116/16/2 39/16/2
f 42/21/6 117/15/6 40/15/6
f 39/16/5 118/14/5 41/14/5
f 121/15/1 122/14/1 120/16/1
f 46/21/6 121/15/6 44/15/6
f 43/16/5 122/14/5 45/14/5
f 45/14/4 123/21/4 46/21/4
f 44/15/2 120/16/2 43/16/2
f 125/15/1 126/14/1 124/16/1
f 50/21/6 125/15/6 48/15/6
f 47/16/5 126/14/5 49/14/5
f 49/14/4 127/21/4 50/21/4
f 48/15/2 124/16/2 47/16/2
f 129/15/1 130/14/1 128/16/1
f 57/14/4 131/21/4 58/21/4
f 56/15/2 128/16/2 55/16/2
f 58/21/6 129/15/6 56/15/6
f 55/16/5 130/14/5 57/14/5
f 142/33/2 154/34/2 147/34/2
f 54/21/6 139/35/6 137/18/6
f 51/16/5 138/36/5 136/37/5
f 53/14/4 150/38/4 149/39/4
f 52/15/2 142/33/2 140/33/2
f 136/37/5 134/14/5 53/14/5
f 137/18/6 133/15/6 52/15/6
f 134/14/4 163/38/4 150/38/4
f 145/19/8 52/15/8 140/33/8
f 151/40/8 140/33/8 146/34/8
f 133/15/2 161/33/2 142/33/2
f 140/33/2 147/34/2 146/34/2
f 141/17/4 135/21/4 54/21/4
f 144/41/1 150/38/1 148/42/1
f 149/39/8 145/19/8 151/40/8
f 53/14/8 151/40/8 136/37/8
f 147/34/2 155/16/2 132/16/2
f 146/34/2 132/16/2 51/16/2
f 150/38/6 160/42/6 148/42/6
f 136/37/8 146/34/8 51/16/8
f 149/39/4 143/17/4 141/17/4
f 156/35/1 158/17/1 162/41/1
f 155/16/5 168/36/5 152/36/5
f 152/36/4 169/42/4 160/42/4
f 160/42/1 153/14/1 152/36/1
f 162/41/4 166/35/4 156/35/4
f 139/35/6 157/15/6 133/15/6
f 144/41/5 158/17/5 143/17/5
f 148/42/4 162/41/4 144/41/4
f 143/17/4 159/21/4 135/21/4
f 132/16/5 152/36/5 138/36/5
f 138/36/5 153/14/5 134/14/5
f 135/21/6 156/35/6 139/35/6
f 167/15/1 171/41/1 170/33/1
f 170/33/1 169/42/1 164/34/1
f 164/34/1 168/36/1 165/16/1
f 156/35/6 167/15/6 157/15/6
f 161/33/2 164/34/2 154/34/2
f 157/15/2 170/33/2 161/33/2
f 160/42/4 171/41/4 162/41/4
f 154/34/2 165/16/2 155/16/2
f 180/20/1 179/21/1 178/43/1
f 180/20/1 173/14/1 172/30/1
f 175/16/1 180/20/1 172/30/1
f 177/15/1 180/20/1 174/31/1
f 87/22/23 177/15/23 60/15/23
f 85/30/24 173/14/24 61/14/24
f 62/21/25 176/22/25 87/22/25
f 59/16/26 172/30/26 85/30/26
f 88/43/27 179/21/27 62/21/27
f 86/31/28 175/16/28 59/16/28
f 61/14/29 178/43/29 88/43/29
f 60/15/30 174/31/30 86/31/30
f 183/15/1 182/14/1 181/16/1
f 69/14/4 184/21/4 70/21/4
f 68/15/2 181/16/2 67/16/2
f 70/21/6 183/15/6 68/15/6
f 67/16/5 182/14/5 69/14/5
f 188/21/31 199/44/31 197/21/31
f 63/16/5 186/14/5 65/14/5
f 65/14/4 196/45/4 195/45/4
f 64/15/2 191/46/2 189/24/2
f 66/21/6 187/15/6 64/15/6
f 189/24/2 194/47/2 193/48/2
f 190/23/4 188/21/4 66/21/4
f 191/46/1 196/45/1 194/47/1
f 195/45/8 189/24/8 193/48/8
f 65/14/8 193/48/8 63/16/8
f 203/47/6 209/47/6 194/47/6
f 63/16/2 194/47/2 185/16/2
f 195/45/4 192/44/4 190/23/4
f 198/15/1 199/44/1 200/46/1
f 192/44/32 200/46/32 199/44/32
f 187/15/33 200/46/33 191/46/33
f 188/21/34 198/15/34 187/15/34
f 203/47/35 202/14/35 201/16/35
f 196/45/6 203/47/6 194/47/6
f 204/45/35 207/14/35 202/14/35
f 185/16/5 202/14/5 186/14/5
f 205/14/4 208/45/4 206/45/4
f 186/14/36 206/45/36 196/45/36
f 202/14/5 205/14/5 186/14/5
f 196/45/6 208/45/6 204/45/6
f 210/16/2 211/47/2 212/16/2
f 194/47/36 210/16/36 185/16/36
f 185/16/5 212/16/5 201/16/5
f 201/16/35 211/47/35 203/47/35
f 249/20/37 216/21/37 241/43/37
f 241/43/38 218/21/38 242/43/38
f 245/21/39 243/43/39 246/43/39
f 252/16/40 251/16/40 254/16/40
f 262/16/41 256/16/41 263/16/41
f 260/16/42 229/16/42 257/16/42
f 235/16/43 238/16/43 239/16/43
f 237/16/44 235/16/44 239/16/44
f 237/16/1 236/16/1 232/16/1
f 236/16/1 238/16/1 234/16/1
f 246/43/45 219/14/45 244/14/45
f 215/14/46 242/43/46 217/14/46
f 247/30/47 241/43/47 215/14/47
f 242/43/48 244/14/48 217/14/48
f 218/21/49 246/43/49 242/43/49
f 213/16/50 249/20/50 247/30/50
f 240/31/51 248/22/51 249/20/51
f 253/16/1 251/16/1 224/16/1
f 222/16/52 254/16/52 253/16/52
f 250/16/53 252/16/53 254/16/53
f 259/16/54 257/16/54 230/16/54
f 263/16/55 228/16/55 261/16/55
f 226/16/56 260/16/56 259/16/56
f 255/16/57 258/16/57 260/16/57
f 257/16/54 261/16/54 230/16/54
f 229/16/58 263/16/58 257/16/58
f 5/13/2 18/13/2 14/2/2
f 12/10/3 25/10/3 24/11/3
f 8/9/2 21/9/2 19/1/2
f 4/3/4 17/3/4 20/6/4
f 7/6/5 20/6/5 22/7/5
f 1/2/5 14/2/5 15/4/5
f 9/7/4 22/7/4 23/8/4
f 2/4/2 15/4/2 16/5/2
f 10/8/5 23/8/5 25/10/5
f 3/5/6 16/5/6 17/3/6
f 13/12/7 26/12/7 21/9/7
f 6/1/5 19/1/5 18/13/5
f 11/11/2 24/11/2 26/12/2
f 29/14/8 30/21/8 28/15/8
f 33/14/8 34/21/8 32/15/8
f 37/14/8 38/21/8 36/15/8
f 41/14/8 42/21/8 40/15/8
f 45/14/8 46/21/8 44/15/8
f 49/14/8 50/21/8 48/15/8
f 141/17/8 54/21/8 137/18/8
f 57/14/8 58/21/8 56/15/8
f 89/20/8 88/43/8 62/21/8
f 190/23/8 66/21/8 64/15/8
f 69/14/8 70/21/8 68/15/8
f 73/14/8 74/21/8 72/15/8
f 79/25/8 80/32/8 78/21/8
f 83/26/8 80/32/8 79/25/8
f 75/16/8 77/14/8 82/28/8
f 81/29/8 82/28/8 83/26/8
f 61/14/8 88/43/8 89/20/8
f 59/16/8 85/30/8 89/20/8
f 89/20/8 87/22/8 60/15/8
f 91/15/1 93/21/1 92/14/1
f 30/21/4 93/21/4 91/15/4
f 27/16/2 90/16/2 92/14/2
f 29/14/5 92/14/5 93/21/5
f 28/15/6 91/15/6 90/16/6
f 95/15/1 97/21/1 96/14/1
f 31/16/5 94/16/5 96/14/5
f 33/14/4 96/14/4 97/21/4
f 32/15/2 95/15/2 94/16/2
f 34/21/6 97/21/6 95/15/6
f 99/15/1 101/21/1 100/14/1
f 74/21/9 101/21/9 99/15/9
f 71/16/10 98/16/10 100/14/10
f 73/14/11 100/14/11 101/21/11
f 72/15/12 99/15/12 98/16/12
f 106/25/1 103/15/1 105/21/1
f 106/25/1 107/32/1 110/26/1
f 102/16/1 108/29/1 109/28/1
f 108/29/1 111/27/1 110/26/1
f 76/15/13 103/15/13 106/25/13
f 79/25/14 106/25/14 111/27/14
f 81/29/15 108/29/15 102/16/15
f 77/14/16 104/14/16 109/28/16
f 83/26/17 110/26/17 107/32/17
f 78/21/18 105/21/18 103/15/18
f 80/32/19 107/32/19 105/21/19
f 82/28/20 109/28/20 110/26/20
f 75/16/21 102/16/21 104/14/21
f 84/27/22 111/27/22 108/29/22
f 113/15/1 115/21/1 114/14/1
f 37/14/4 114/14/4 115/21/4
f 36/15/2 113/15/2 112/16/2
f 38/21/6 115/21/6 113/15/6
f 35/16/5 112/16/5 114/14/5
f 117/15/1 119/21/1 118/14/1
f 41/14/4 118/14/4 119/21/4
f 40/15/2 117/15/2 116/16/2
f 42/21/6 119/21/6 117/15/6
f 39/16/5 116/16/5 118/14/5
f 121/15/1 123/21/1 122/14/1
f 46/21/6 123/21/6 121/15/6
f 43/16/5 120/16/5 122/14/5
f 45/14/4 122/14/4 123/21/4
f 44/15/2 121/15/2 120/16/2
f 125/15/1 127/21/1 126/14/1
f 50/21/6 127/21/6 125/15/6
f 47/16/5 124/16/5 126/14/5
f 49/14/4 126/14/4 127/21/4
f 48/15/2 125/15/2 124/16/2
f 129/15/1 131/21/1 130/14/1
f 57/14/4 130/14/4 131/21/4
f 56/15/2 129/15/2 128/16/2
f 58/21/6 131/21/6 129/15/6
f 55/16/5 128/16/5 130/14/5
f 142/33/2 161/33/2 154/34/2
f 54/21/6 135/21/6 139/35/6
f 51/16/5 132/16/5 138/36/5
f 53/14/4 134/14/4 150/38/4
f 52/15/2 133/15/2 142/33/2
f 136/37/5 138/36/5 134/14/5
f 137/18/6 139/35/6 133/15/6
f 134/14/4 153/14/4 163/38/4
f 145/19/8 137/18/8 52/15/8
f 151/40/8 145/19/8 140/33/8
f 133/15/2 157/15/2 161/33/2
f 140/33/2 142/33/2 147/34/2
f 141/17/4 143/17/4 135/21/4
f 144/41/1 143/17/1 150/38/1
f 149/39/8 141/17/8 145/19/8
f 53/14/8 149/39/8 151/40/8
f 147/34/2 154/34/2 155/16/2
f 146/34/2 147/34/2 132/16/2
f 150/38/6 163/38/6 160/42/6
f 136/37/8 151/40/8 146/34/8
f 149/39/4 150/38/4 143/17/4
f 156/35/1 159/21/1 158/17/1
f 155/16/5 165/16/5 168/36/5
f 152/36/4 168/36/4 169/42/4
f 160/42/1 163/38/1 153/14/1
f 162/41/4 171/41/4 166/35/4
f 139/35/6 156/35/6 157/15/6
f 144/41/5 162/41/5 158/17/5
f 148/42/4 160/42/4 162/41/4
f 143/17/4 158/17/4 159/21/4
f 132/16/5 155/16/5 152/36/5
f 138/36/5 152/36/5 153/14/5
f 135/21/6 159/21/6 156/35/6
f 167/15/1 166/35/1 171/41/1
f 170/33/1 171/41/1 169/42/1
f 164/34/1 169/42/1 168/36/1
f 156/35/6 166/35/6 167/15/6
f 161/33/2 170/33/2 164/34/2
f 157/15/2 167/15/2 170/33/2
f 160/42/4 169/42/4 171/41/4
f 154/34/2 164/34/2 165/16/2
f 180/20/1 176/22/1 179/21/1
f 180/20/1 178/43/1 173/14/1
f 175/16/1 174/31/1 180/20/1
f 177/15/1 176/22/1 180/20/1
f 87/22/23 176/22/23 177/15/23
f 85/30/24 172/30/24 173/14/24
f 62/21/25 179/21/25 176/22/25
f 59/16/26 175/16/26 172/30/26
f 88/43/27 178/43/27 179/21/27
f 86/31/28 174/31/28 175/16/28
f 61/14/29 173/14/29 178/43/29
f 60/15/30 177/15/30 174/31/30
f 183/15/1 184/21/1 182/14/1
f 69/14/4 182/14/4 184/21/4
f 68/15/2 183/15/2 181/16/2
f 70/21/6 184/21/6 183/15/6
f 67/16/5 181/16/5 182/14/5
f 188/21/31 192/44/31 199/44/31
f 63/16/5 185/16/5 186/14/5
f 65/14/4 186/14/4 196/45/4
f 64/15/2 187/15/2 191/46/2
f 66/21/6 188/21/6 187/15/6
f 189/24/2 191/46/2 194/47/2
f 190/23/4 192/44/4 188/21/4
f 191/46/1 192/44/1 196/45/1
f 195/45/8 190/23/8 189/24/8
f 65/14/8 195/45/8 193/48/8
f 203/47/6 211/47/6 209/47/6
f 63/16/2 193/48/2 194/47/2
f 195/45/4 196/45/4 192/44/4
f 198/15/1 197/21/1 199/44/1
f 192/44/32 191/46/32 200/46/32
f 187/15/33 198/15/33 200/46/33
f 188/21/34 197/21/34 198/15/34
f 203/47/35 204/45/35 202/14/35
f 196/45/6 204/45/6 203/47/6
f 204/45/35 208/45/35 207/14/35
f 185/16/5 201/16/5 202/14/5
f 205/14/4 207/14/4 208/45/4
f 186/14/36 205/14/36 206/45/36
f 202/14/5 207/14/5 205/14/5
f 196/45/6 206/45/6 208/45/6
f 210/16/2 209/47/2 211/47/2
f 194/47/36 209/47/36 210/16/36
f 185/16/5 210/16/5 212/16/5
f 201/16/35 212/16/35 211/47/35
f 249/20/59 248/22/59 216/21/59
f 241/43/60 216/21/60 218/21/60
f 245/21/1 220/21/1 243/43/1
f 252/16/1 223/16/1 251/16/1
f 262/16/1 227/16/1 256/16/1
f 260/16/61 258/16/61 229/16/61
f 235/16/1 233/16/1 238/16/1
f 237/16/1 231/16/1 235/16/1
f 237/16/62 239/16/62 236/16/62
f 236/16/63 239/16/63 238/16/63
f 246/43/64 243/43/64 219/14/64
f 215/14/65 241/43/65 242/43/65
f 247/30/66 249/20/66 241/43/66
f 242/43/67 246/43/67 244/14/67
f 218/21/68 245/21/68 246/43/68
f 213/16/69 240/31/69 249/20/69
f 240/31/1 214/15/1 248/22/1
f 253/16/70 254/16/70 251/16/70
f 222/16/71 250/16/71 254/16/71
f 250/16/1 221/16/1 252/16/1
f 259/16/72 260/16/72 257/16/72
f 263/16/73 256/16/73 228/16/73
f 226/16/74 255/16/74 260/16/74
f 255/16/1 225/16/1 258/16/1
f 257/16/75 263/16/75 261/16/75
f 229/16/76 262/16/76 263/16/76
